HIERARCHY
ROOT root
{
	OFFSET	0	13.1	24.9
	CHANNELS 6  Xposition Yposition Zposition Xrotation Yrotation Zrotation
	JOINT spine_1
	{
		OFFSET	0	9.99999	0
		CHANNELS 3  Xrotation Yrotation Zrotation
		JOINT spine_2
		{
			OFFSET	0	112	-10
			CHANNELS 3  Xrotation Yrotation Zrotation
			JOINT spine_3
			{
				OFFSET	0	206.5	19.3
				CHANNELS 3  Xrotation Yrotation Zrotation
				JOINT spine_4
				{
					OFFSET	0	110.4	14.6
					CHANNELS 3  Xrotation Yrotation Zrotation
					JOINT neck_1
					{
						OFFSET	0	71.8	-50.3
						CHANNELS 3  Xrotation Yrotation Zrotation
						JOINT neck_2
						{
							OFFSET	0	86.2	-25.8
							CHANNELS 3  Xrotation Yrotation Zrotation
							JOINT head_ee
							{
								OFFSET	0	179.8	-8.7
								CHANNELS 3  Xrotation Yrotation Zrotation
								End Site
								{
									OFFSET	1	0	0
								}
							}
						}
					}
					JOINT left_clavicle
					{
						OFFSET	-43.2	22.4	-70.8
						CHANNELS 3  Xrotation Yrotation Zrotation
						JOINT left_shoulder
						{
							OFFSET	-93.9	-5.79999	48.7
							CHANNELS 3  Xrotation Yrotation Zrotation
							JOINT left_elbow
							{
								OFFSET	-291.4	-30.8	15.2
								CHANNELS 3  Xrotation Yrotation Zrotation
								JOINT left_lowarm_twist
								{
									OFFSET	-110.7	-3.89999	13.6
									CHANNELS 3  Xrotation Yrotation Zrotation
									JOINT left_hand
									{
										OFFSET	-110.7	-3.89999	13.6
										CHANNELS 3  Xrotation Yrotation Zrotation
										JOINT left_ee
										{
											OFFSET	-80.8	-5.10001	12.1
											CHANNELS 3  Xrotation Yrotation Zrotation
											End Site
											{
												OFFSET	1	0	0
											}
										}
									}
								}
							}
						}
					}
					JOINT right_clavicle
					{
						OFFSET	43.2	22.4	-70.8
						CHANNELS 3  Xrotation Yrotation Zrotation
						JOINT right_shoulder
						{
							OFFSET	93.9	-5.79999	48.7
							CHANNELS 3  Xrotation Yrotation Zrotation
							JOINT right_elbow
							{
								OFFSET	291.4	-30.8	15.2
								CHANNELS 3  Xrotation Yrotation Zrotation
								JOINT right_lowarm_twist
								{
									OFFSET	110.7	-3.89999	13.6
									CHANNELS 3  Xrotation Yrotation Zrotation
									JOINT right_hand
									{
										OFFSET	110.7	-3.89999	13.6
										CHANNELS 3  Xrotation Yrotation Zrotation
										JOINT right_ee
										{
											OFFSET	80.8	-5.10001	12.1
											CHANNELS 3  Xrotation Yrotation Zrotation
											End Site
											{
												OFFSET	1	0	0
											}
										}
									}
								}
							}
						}
					}
				}
			}
		}
	}
	JOINT left_hip
	{
		OFFSET	-82.8	-127.5	0.300001
		CHANNELS 3  Xrotation Yrotation Zrotation
		JOINT left_knee
		{
			OFFSET	-28.2	-396.7	2.2
			CHANNELS 3  Xrotation Yrotation Zrotation
			JOINT left_ankle
			{
				OFFSET	-11.7	-411.3	35.4
				CHANNELS 3  Xrotation Yrotation Zrotation
				JOINT left_toes
				{
					OFFSET	0	-60	-88.6
					CHANNELS 3  Xrotation Yrotation Zrotation
					JOINT left_foot_ee
					{
						OFFSET	-22.5	-16.5	-42.2
						CHANNELS 3  Xrotation Yrotation Zrotation
						End Site
						{
							OFFSET	1	0	0
						}
					}
				}
			}
		}
	}
	JOINT right_hip
	{
		OFFSET	82.8	-127.5	0.300001
		CHANNELS 3  Xrotation Yrotation Zrotation
		JOINT right_knee
		{
			OFFSET	28.2	-396.7	2.2
			CHANNELS 3  Xrotation Yrotation Zrotation
			JOINT right_ankle
			{
				OFFSET	11.7	-411.3	35.4
				CHANNELS 3  Xrotation Yrotation Zrotation
				JOINT right_toes
				{
					OFFSET	0	-60	-88.6
					CHANNELS 3  Xrotation Yrotation Zrotation
					JOINT right_foot_ee
					{
						OFFSET	22.5	-16.5	-42.2
						CHANNELS 3  Xrotation Yrotation Zrotation
						End Site
						{
							OFFSET	1	0	0
						}
					}
				}
			}
		}
	}
}
MOTION
Frames: 8
Frame Time: 0.02
1275.75 694.102 -661.751 167.792 -66.9329 164.151 -2.07316 0.299916 2.19362 -2.07049 0.159757 2.20825 -2.0615 -0.386749 2.17999 -2.06813 -0.0376941 2.2137 -1.627 7.18584 -3.24895 -1.43135 15.532 -2.54335 -0.0 0.0 -0.0 1.22823 17.8998 3.96913 27.0494 -14.7953 63.8936 2.43898 -50.3785 1.14727 20.695 0.259165 -2.61656 0.668791 -2.23158 3.54799 -0.0 0.0 -0.0 8.8174 21.3869 -16.6621 -21.3254 19.1392 -70.2835 0.19314 5.46534 -0.00921864 18.0382 -0.279073 2.27782 0.52191 -5.70791 -5.81109 0.0 0.0 0.0 -23.5093 6.33152 12.4726 -3.74812 0.136073 0.559025 40.8848 11.2855 -4.96451 -36.3446 0.0 0.0 -0.0 0.0 -0.0 30.3634 6.2798 -6.40975 -15.7137 -0.322054 -2.38238 39.1531 5.31762 4.86279 3.72388 -0.0 -0.0 0.0 0.0 0.0 
1299.86 690.344 -651.466 167.907 -67.6284 164.138 -1.96417 0.0921592 2.30706 -1.96121 -0.0547918 2.30825 -1.96077 -0.615534 2.22538 -1.96759 -0.25645 2.29462 -1.58522 6.72808 -0.927697 -1.48233 12.8603 -0.139239 -0.0 0.0 -0.0 0.0368348 18.0685 2.17078 24.0881 -14.0513 63.943 2.50105 -51.0836 1.19533 21.6354 0.248358 -2.73618 0.516374 0.900703 3.82194 -0.0 0.0 -0.0 8.80856 18.6786 -16.8464 -21.2458 21.5755 -69.2443 0.256342 7.2371 -0.016211 17.7555 -0.280266 2.24173 0.057574 -11.7992 -5.23452 0.0 0.0 0.0 -24.9297 5.14112 12.2479 -4.13445 0.148011 0.617113 41.4353 10.9961 -5.00891 -35.9568 0.0 0.0 -0.0 0.0 -0.0 30.124 6.72591 -6.03353 -18.4053 -0.311208 -2.79518 39.0127 6.53059 4.87029 5.1844 -0.0 -0.0 0.0 0.0 0.0 
1319.08 689.994 -643.536 169.005 -67.9237 165.278 -1.81093 0.149883 2.19189 -1.80826 0.0101383 2.19698 -1.80547 -0.519595 2.13471 -1.81178 -0.176022 2.18994 -0.302546 7.10833 -1.24838 -0.156072 13.7121 -0.571593 -0.0 0.0 -0.0 -0.284169 18.1437 1.69186 21.76 -13.2499 64.3285 2.39316 -49.8441 1.11211 22.5499 0.235966 -2.85234 0.534079 2.75458 4.69888 -0.0 0.0 -0.0 8.87399 17.2697 -17.0821 -21.0146 23.5261 -68.0407 0.298044 8.39878 -0.0218838 17.5679 -0.28096 2.21777 -0.17107 -14.3657 -4.82073 0.0 0.0 0.0 -23.7968 6.27758 12.0602 -6.12816 0.20337 0.918057 38.7617 12.0011 -4.78319 -35.891 0.0 0.0 -0.0 0.0 -0.0 30.1766 6.73656 -6.4473 -19.5434 -0.300792 -2.96948 39.6207 7.26175 4.93673 6.35611 -0.0 -0.0 0.0 0.0 0.0 
1339.99 690.927 -635.28 169.214 -67.2305 166.146 -1.59389 0.212278 1.83682 -1.59201 0.0949861 1.8466 -1.58725 -0.345793 1.81643 -1.59185 -0.0546333 1.84823 0.140647 7.26822 -0.680616 0.282921 13.501 0.0113821 -0.0 0.0 -0.0 -1.23845 18.7267 0.32779 19.8383 -13.2091 66.8113 2.09332 -46.0342 0.889379 23.0751 0.228011 -2.91896 0.215186 5.1212 3.55574 -0.0 0.0 -0.0 9.06946 15.8489 -17.5938 -19.1194 25.5938 -67.4779 0.309093 8.70546 -0.023527 17.33 -0.281726 2.18741 -0.482369 -17.6126 -4.21744 0.0 0.0 0.0 -23.4332 4.79046 11.5082 -6.731 0.218042 1.00941 35.5631 14.9337 -4.5133 -34.9724 0.0 0.0 -0.0 0.0 -0.0 27.4857 8.76298 -7.51857 -18.2187 -0.312586 -2.76658 39.5299 9.92027 4.98404 6.56381 -0.0 -0.0 0.0 0.0 0.0 
1357.5 693.836 -628.159 169.473 -67.213 166.157 -1.58807 0.057224 2.05361 -1.58573 -0.0735406 2.05309 -1.58651 -0.558598 1.97704 -1.59189 -0.23942 2.04042 1.41936 6.86056 -0.92883 1.57411 12.8798 -0.420458 -0.0 0.0 -0.0 -2.41543 18.5224 -1.48228 17.6982 -13.3795 68.2905 1.66561 -39.5226 0.598421 23.5997 0.219457 -2.98542 0.225752 5.44139 3.75602 -0.0 0.0 -0.0 9.18932 15.974 -17.8515 -17.1681 27.3932 -67.2099 0.323212 9.0966 -0.0257116 17.1776 -0.282151 2.16794 -0.704718 -20.2816 -3.98019 0.0 0.0 0.0 -23.1764 4.48783 11.481 -7.18092 0.228366 1.07768 35.4387 16.9443 -4.52991 -34.8208 0.0 0.0 -0.0 0.0 -0.0 26.891 8.56833 -7.90651 -21.3939 -0.276468 -3.25238 38.9042 12.0211 4.98061 6.59795 -0.0 -0.0 0.0 0.0 0.0 
1385.23 699.188 -626.844 168.684 -65.9008 164.43 -1.60542 0.229022 2.18323 -1.60277 0.0896671 2.19338 -1.59696 -0.433655 2.15197 -1.60341 -0.0884347 2.19343 1.20468 5.81887 -1.1532 1.32418 11.2409 -0.735412 -0.0 0.0 -0.0 -3.79154 19.3811 -3.38745 16.4606 -13.0735 71.7278 1.3867 -34.4845 0.430397 23.5937 0.219558 -2.98466 -0.368733 7.38783 0.680685 -0.0 0.0 -0.0 8.32325 17.2453 -15.8724 -13.8453 28.0732 -69.6898 0.273962 7.72873 -0.0185057 17.3139 -0.281773 2.18535 -0.811597 -23.7683 -4.79948 0.0 0.0 0.0 -22.2454 6.79961 13.3741 -12.0966 0.306085 1.82774 29.3771 22.025 -3.97065 -33.2819 0.0 0.0 -0.0 0.0 -0.0 22.4923 13.3919 -7.25072 -16.947 -0.319492 -2.57159 36.7499 17.0931 4.93666 4.23072 -0.0 -0.0 0.0 0.0 0.0 
1400.83 702.198 -623.063 169.192 -65.9231 164.727 -1.58076 0.264616 2.26309 -1.57792 0.120111 2.27533 -1.57057 -0.422502 2.239 -1.57756 -0.0636865 2.27761 0.846579 6.56058 -2.17371 1.02718 13.42 -1.75192 -0.0 0.0 -0.0 -4.416 19.2691 -4.35427 15.4398 -13.0691 73.4017 1.08427 -28.2402 0.272761 23.6005 0.219444 -2.98552 -0.435877 9.33471 1.06769 -0.0 0.0 -0.0 8.07407 17.2616 -15.3253 -11.1101 28.5664 -70.2516 0.295377 8.32469 -0.021496 17.2387 -0.281987 2.17575 -1.27045 -25.2359 -2.81966 0.0 0.0 0.0 -21.0629 6.75606 13.1622 -14.7567 0.321236 2.23556 26.9777 21.5621 -3.68313 -35.6102 0.0 0.0 -0.0 0.0 -0.0 19.9887 13.2005 -7.13575 -13.7528 -0.317743 -2.08158 32.5005 18.898 4.56631 5.90788 -0.0 -0.0 0.0 0.0 0.0 
1412.56 705.77 -619.178 168.935 -66.2956 164.298 -1.52227 0.276427 2.45139 -1.51894 0.119927 2.464 -1.51082 -0.464906 2.42274 -1.519 -0.0765663 2.46573 -0.195115 6.30602 -1.16957 -0.0769747 12.2074 -0.581086 -0.0 0.0 -0.0 -5.32421 18.6227 -5.90316 14.6748 -14.3085 75.8801 0.86842 -23.2766 0.17887 23.1391 0.227001 -2.92707 -0.490551 9.11485 0.623133 -0.0 0.0 -0.0 7.98668 19.6296 -14.9675 -6.41255 28.1791 -71.4603 0.300885 8.47769 -0.0223007 18.1515 -0.278545 2.29228 -1.31761 -26.3637 -3.05099 0.0 0.0 0.0 -19.6151 7.42103 12.2555 -17.0766 0.318986 2.59146 27.2461 20.8419 -3.70255 -38.3773 0.0 0.0 -0.0 0.0 -0.0 18.1359 15.0868 -6.25581 -11.3739 -0.298698 -1.71709 32.4185 25.0245 4.8202 6.17437 -0.0 -0.0 0.0 0.0 0.0 
